<mxfile host="app.diagrams.net" modified="2024-02-21T05:36:49.286Z" agent="Mozilla/5.0 (X11; Linux x86_64; rv:122.0) Gecko/20100101 Firefox/122.0" version="23.1.5" etag="Ae1V_dgpjs0FrO1MsItl" type="github">
  <diagram name="Page-1" id="_ZRqCx02RlAx4QBwJX4T">
    <mxGraphModel>
      <root>
        <mxCell id="0" />
        <mxCell id="1" parent="0" />
      </root>
    </mxGraphModel>
  </diagram>
</mxfile>
